# xmcd
# 
# Track frame offsets:
#     150
#     28880
#     62770
#     110625
#     135355
#     161817
#     217480
#     243675
#     268130
#     288690
#     319420
# 
# Disc length: 4615
# 
# Revision: 3
# Processed by: cddbd v1.5.2PL0 Copyright (c) Steve Scherf et al.
# Submitted via: fre:ac v1.1beta1pre5
# 
DISCID=bd12050b
DTITLE=Scolohofo - Oh !
DYEAR=2002
DGENRE=Jazz
TTITLE0=Oh !
TTITLE1=Right About Now
TTITLE2=The Winding Way
TTITLE3=Bittersweet
TTITLE4=Shorter Form
TTITLE5=New Amsterdam
TTITLE6=In Your Arms
TTITLE7=The Dawn of Time
TTITLE8=Brandyn
TTITLE9=Faces
TTITLE10=Oh I See
EXTD=
EXTT0=
EXTT1=
EXTT2=
EXTT3=
EXTT4=
EXTT5=
EXTT6=
EXTT7=
EXTT8=
EXTT9=
EXTT10=
PLAYORDER=
